<svg version="1" xmlns="http://www.w3.org/2000/svg" width="346.667" height="346.667" viewBox="0 0 260.000000 260.000000"><path d="M0 130v130h260V0H0v130zm64-88.6v7.5l-5.4.6c-6.6.9-10.9 3.4-13.3 7.7-1.5 2.8-1.8 7-2.3 29.8-.5 25.8-.6 26.6-3.1 32-1.4 3-4.2 7-6.1 8.9l-3.6 3.3 3.4 3c1.8 1.6 4.6 5.5 6.1 8.6l2.8 5.7.6 27c.4 19.7.9 27.8 1.9 29.8 1.9 3.9 7.1 6.7 13.5 7.4l5.5.6v15l-7.7-.6c-10.6-.7-18.1-3.7-23.1-9.1-6.6-7.1-7.4-11.1-8.1-41.6-.5-22.4-.9-27-2.3-29.7-2.2-4-6.5-7.1-11.4-8.1l-3.9-.8-.3-7.1-.3-7.1 4.1-.7c4.9-.8 10.7-5.5 12.6-10.2 1-2.4 1.4-8.9 1.4-24 .1-23.8 1.1-33.8 4.1-40.1 4.2-8.6 16.5-14.5 31.2-15.1L64 34v7.4zM215.5 37c7.3 2.5 11.6 6 14.9 11.9 3.6 6.7 4.5 15.2 4.6 41 0 19.6.2 21.6 2.1 25 2.4 4.4 7.1 7.7 12.2 8.6l3.7.7v7.4c0 7.3 0 7.4-2.6 7.4-4 0-9.2 2.9-12.2 6.8l-2.7 3.5-.6 27.1c-.8 32.3-1.5 35.6-8.8 42.7-5.7 5.5-11.7 7.8-22.3 8.6l-7.8.6V213h3.3c7.3 0 13.6-3.5 16-9 .6-1.5 1.3-13.4 1.7-29 .5-24.9.7-26.8 2.9-31.7 1.3-2.9 4.1-6.8 6.2-8.8 3.7-3.3 3.8-3.5 1.8-4.9-2.8-1.9-7.3-8.3-8.9-12.6-.9-2.4-1.5-11.7-1.9-30-.6-22.6-.9-27-2.4-29.7-2.3-4.4-5.3-6.2-12.6-7.5l-6.1-1.2V33.7l7 .7c3.9.4 9.5 1.6 12.5 2.6zm-75 18.7c4.8 10.1 15.6 34.9 23 53.3 9.1 22.4 30.5 79.2 30.5 80.9 0 .7-3.8 1.1-10.4 1.1h-10.5l-2.1-5.8c-1.2-3.1-4-11-6.2-17.5l-4-11.7-31.5.2-31.5.3-6.1 17.2-6.2 17.3H75.2c-9.5 0-10.4-.2-9.7-1.7.3-1 4.7-12.8 9.7-26.3 15.8-42.9 29.2-75.7 40.6-100.3l5.1-10.7H138.6l1.9 3.7z"/><path d="M128 77.7c-5.9 12.7-24.4 60.3-23.6 61 .2.2 11.5.2 25.3.1l25-.3L146 116c-4.8-12.4-10.5-26.7-12.7-31.8-3.9-9.2-4-9.2-5.3-6.5z"/></svg>